<svg viewBox="0 0 64 64" xmlns="http://www.w3.org/2000/svg">
  <defs>
    <linearGradient id="g" x1="0" y1="0" x2="1" y2="1">
      <stop offset="0%" stop-color="#6ea8ff"/>
      <stop offset="100%" stop-color="#b389ff"/>
    </linearGradient>
  </defs>
  <rect x="0" y="0" width="64" height="64" rx="14" fill="url(#g)"/>
  <g transform="translate(8 8) scale(0.75)" stroke="#fff" fill="none">
    <rect x="6"  y="6"  width="24" height="24" rx="3" stroke-width="2.8"/>
    <rect x="34" y="6"  width="24" height="24" rx="3" stroke-width="2.8"/>
    <rect x="6"  y="34" width="24" height="24" rx="3" stroke-width="2.8"/>
    <rect x="34" y="34" width="24" height="24" rx="3" stroke-width="2.8"/>
    <line x1="11" y1="24" x2="11" y2="20" stroke-width="2.6" stroke-linecap="round"/>
    <line x1="16" y1="24" x2="16" y2="14" stroke-width="2.6" stroke-linecap="round"/>
    <line x1="21" y1="24" x2="21" y2="18" stroke-width="2.6" stroke-linecap="round"/>
    <line x1="26" y1="24" x2="26" y2="11" stroke-width="2.6" stroke-linecap="round"/>
    <polyline points="38,24 43,18 48,21 53,12" stroke-width="2.6" stroke-linecap="round" stroke-linejoin="round"/>
    <circle cx="18" cy="46" r="7" stroke-width="3" stroke-dasharray="28 60"/>
  </g>
  <text x="42" y="50" text-anchor="middle" font-family="-apple-system, BlinkMacSystemFont, 'Segoe UI', Roboto, sans-serif" font-size="13" font-weight="800" fill="#fff">5</text>
</svg>
